<svg width="316" height="146" viewBox="0 0 316 146" fill="none" xmlns="http://www.w3.org/2000/svg">
<path d="M58.8 145.2C40.9333 145.2 26.6667 139.067 16 126.8C5.33333 114.533 2.83122e-07 96.4 2.83122e-07 72.4C2.83122e-07 48.2667 4.6 30.2 13.8 18.2C23.1333 6.06667 37.6 1.90735e-06 57.2 1.90735e-06C76.9333 1.90735e-06 93.5333 4.93334 107 14.8C107 21.6 106.067 29.6667 104.2 39C101.267 39.5333 97.4 39.8 92.6 39.8L88.2 19.2C80.6 16.6667 71.2667 15.4 60.2 15.4C52.8667 15.4 42.8 17.4 30 21.4C29.2 22.8667 28.2 24.9333 27 27.6C25.8 30.1333 24.2 35.6 22.2 44C20.3333 52.2667 19.4 60.6 19.4 69C19.4 109.933 32.6667 130.4 59.2 130.4C73.2 130.4 84 127.867 91.6 122.8C92.1333 106 92.4667 93.4 92.6 85L73.2 80.2L73.8 73.2H119.8C122.067 77.4667 123.2 81.4667 123.2 85.2C118 86 112.4 86.5333 106.4 86.8C107.2 109.2 107.6 124.667 107.6 133.2C104.267 135.467 97.6 138.067 87.6 141C77.7333 143.8 68.1333 145.2 58.8 145.2ZM158.255 142C154.788 142.8 151.388 143.2 148.055 143.2C144.855 143.2 141.655 143 138.455 142.6C137.655 138.867 137.255 135.133 137.255 131.4C137.255 127.533 137.388 124.667 137.655 122.8C140.588 122.133 143.655 121.8 146.855 121.8C150.188 121.8 153.721 121.933 157.455 122.2C158.255 125.667 158.655 129.067 158.655 132.4C158.655 135.6 158.521 138.8 158.255 142ZM200.856 6.80001C203.256 6 209.79 5.13334 220.456 4.20001C231.123 3.13334 240.79 2.6 249.456 2.6C258.256 2.6 265.056 3.00001 269.856 3.80001C269.99 4.33334 270.056 5.00001 270.056 5.80001C270.056 6.46668 269.656 8.13334 268.856 10.8C268.19 13.4667 267.656 15.2 267.256 16C266.19 17.0667 263.19 17.8667 258.256 18.4L296.456 129L315.456 130.6C315.456 134.333 314.323 138.333 312.056 142.6H266.056L265.456 135.6C268.523 134 272.99 132.6 278.856 131.4L268.656 102.8H212.856L203.456 129L219.656 130.6C219.656 134.333 218.523 138.333 216.256 142.6H170.256L169.656 135.6C174.856 133.733 180.39 132.267 186.256 131.2L225.056 17.8C213.19 16.4667 204.856 14.8667 200.056 13L200.856 6.80001ZM252.856 58.2L242.256 19C241.456 18.8667 240.323 18.8 238.856 18.8L228.056 59.6L216.456 90H265.056L252.856 58.2Z" fill="white"/>
</svg>
